#!OML:ASF E:\pregnant2\Project 1\Capture day 1\Session 1\pregnant2.ASF
:FULLY-SPECIFIED
:DEGREES
2263
root -7.1612 17.4899 20.6063 28.4939 -1.33036 2.30025
lowerback -17.8194 1.43343 4.5933
upperback -12.9426 1.25804 -1.00983
thorax -3.87003 0.273133 -3.48065
lowerneck -15.9896 -1.79417 -4.32183
upperneck 37.4902 -0.604693 -1.66975
head 16.0696 -1.12605 -0.072483
rclavicle -4.57205e-015 -6.36111e-015
rhumerus -112.077 32.9605 -144.489
rradius 83.3406
rwrist 34.2939
rhand -53.8764 -53.533
rfingers 7.12502
rthumb -26.305 -81.7291
lclavicle -4.57205e-015 -6.36111e-015
lhumerus -119.38 -40.4055 146.698
lradius 94.1231
lwrist -18.2671
lhand -44.7724 35.242
lfingers 7.12502
lthumb -17.5647 64.4686
rfemur -37.2767 11.1926 20.7678
rtibia 25.209
rfoot -13.7532 -12.8674
rtoes 6.86378
lfemur -60.8765 12.8848 -9.13212
ltibia 94.3625
lfoot 11.2243 -10.7293
ltoes -4.5589
2264
root -7.14048 17.4786 20.6145 28.5398 -1.16913 2.2689
lowerback -17.8214 1.44199 4.7115
upperback -12.9475 1.25553 -0.951284
thorax -3.87576 0.266681 -3.4853
lowerneck -15.9885 -1.83931 -4.36096
upperneck 37.4405 -0.614122 -1.78731
head 16.0456 -1.15122 -0.117674
rclavicle 9.69075e-015 -2.78299e-015
rhumerus -112.187 32.9875 -144.542
rradius 83.4111
rwrist 34.2761
rhand -53.8499 -53.1653
rfingers 7.12502
rthumb -26.2796 -81.3652
lclavicle 9.69075e-015 -2.78299e-015
lhumerus -119.263 -40.3411 146.642
lradius 94.0134
lwrist -18.2861
lhand -44.7729 35.2512
lfingers 7.12502
lthumb -17.5651 64.4778
rfemur -37.4904 11.1464 20.7556
rtibia 25.6415
rfoot -14.0051 -12.9605
rtoes 6.69052
lfemur -60.6755 12.6129 -9.79448
ltibia 93.5869
lfoot 9.3155 -10.5661
ltoes -5.27403
2265
root -7.11938 17.4665 20.6228 28.5866 -1.00349 2.23361
lowerback -17.8246 1.45282 4.83366
upperback -12.9522 1.25546 -0.893704
thorax -3.8806 0.261197 -3.49283
lowerneck -15.9816 -1.88454 -4.41056
upperneck 37.388 -0.624852 -1.89373
head 16.019 -1.17671 -0.156225
rclavicle 3.08116e-015 3.18055e-015
rhumerus -112.299 33.0141 -144.598
rradius 83.485
rwrist 34.2545
rhand -53.7212 -52.5802
rfingers 7.12502
rthumb -26.1564 -80.7984
lclavicle 3.08116e-015 3.18055e-015
lhumerus -119.137 -40.2764 146.565
lradius 93.9092
lwrist -18.3101
lhand -44.7759 35.2432
lfingers 7.12502
lthumb -17.568 64.4694
rfemur -37.7037 11.0839 20.7553
rtibia 26.0752
rfoot -14.2593 -13.0399
rtoes 6.5108
lfemur -60.4711 12.337 -10.4408
ltibia 92.6974
lfoot 7.58126 -10.1949
ltoes -6.10084
2266
root -7.09798 17.4538 20.631 28.6293 -0.836557 2.19593
lowerback -17.8233 1.46462 4.95531
upperback -12.9552 1.25698 -0.837302
thorax -3.88565 0.25655 -3.50112
lowerneck -15.9764 -1.93002 -4.47463
upperneck 37.3357 -0.636643 -1.98536
head 15.9931 -1.20257 -0.185932
rclavicle -1.00386e-014 -5.1684e-015
rhumerus -112.416 33.0429 -144.665
rradius 83.5588
rwrist 34.2305
rhand -53.5639 -51.987
rfingers 7.12502
rthumb -26.0058 -80.2274
lclavicle -1.00386e-014 -5.1684e-015
lhumerus -118.999 -40.2121 146.464
lradius 93.8111
lwrist -18.3449
lhand -44.7798 35.2233
lfingers 7.12502
lthumb -17.5717 64.4492
rfemur -37.9154 11.0221 20.7578
rtibia 26.5151
rfoot -14.5202 -13.1198
rtoes 6.34701
lfemur -60.2513 12.0596 -11.0667
ltibia 91.6894
lfoot 6.01354 -9.66625
ltoes -6.99852
2267
root -7.0764 17.4405 20.6391 28.6669 -0.667677 2.15774
lowerback -17.8164 1.47573 5.07336
upperback -12.9534 1.25832 -0.781886
thorax -3.88827 0.252194 -3.50845
lowerneck -15.979 -1.97693 -4.54635
upperneck 37.2826 -0.650783 -2.06856
head 15.9691 -1.22926 -0.211074
rclavicle -7.30534e-015 -2.78299e-015
rhumerus -112.538 33.0787 -144.745
rradius 83.6299
rwrist 34.2056
rhand -53.3581 -51.2711
rfingers 7.12502
rthumb -25.8088 -79.5403
lclavicle -7.30534e-015 -2.78299e-015
lhumerus -118.844 -40.1553 146.339
lradius 93.7182
lwrist -18.3914
lhand -44.7815 35.195
lfingers 7.12502
lthumb -17.5733 64.4207
rfemur -38.1262 10.9725 20.7566
rtibia 26.9642
rfoot -14.7955 -13.2139
rtoes 6.21152
lfemur -60.0111 11.7791 -11.6677
ltibia 90.5614
lfoot 4.5864 -9.03993
ltoes -7.91607
